<?xml version="1.0" standalone="no"?>
<!DOCTYPE svg PUBLIC "-//W3C//DTD SVG 20010904//EN"
 "http://www.w3.org/TR/2001/REC-SVG-20010904/DTD/svg10.dtd">
<svg version="1.0" xmlns="http://www.w3.org/2000/svg"
 width="1258.000000pt" height="625.000000pt" viewBox="0 0 1258.000000 625.000000"
 preserveAspectRatio="xMidYMid meet">

<g transform="translate(0.000000,625.000000) scale(0.100000,-0.100000)"
fill="#000000" stroke="none">
<path d="M1931 4939 c-171 -33 -310 -120 -347 -215 -39 -101 2 -196 115 -271
102 -67 193 -94 341 -100 96 -5 131 -10 155 -24 16 -11 36 -19 44 -19 15 0
428 237 437 251 3 5 -11 18 -30 30 -27 16 -34 25 -30 44 2 13 -5 49 -16 79
-54 144 -257 237 -510 235 -63 -1 -135 -5 -159 -10z m167 -39 l-22 -31 -126 7
c-69 4 -126 8 -128 9 -10 9 173 43 231 44 l68 1 -23 -30z m235 -7 c42 -14 77
-30 77 -35 0 -5 -16 -18 -35 -29 -33 -20 -46 -39 -26 -39 5 0 29 12 55 26 l46
26 29 -21 c69 -49 105 -114 75 -135 -12 -9 -14 -15 -6 -20 7 -4 17 -4 22 -1 6
3 10 -1 10 -9 0 -9 -3 -16 -6 -16 -8 0 -152 81 -272 153 -49 29 -91 47 -102
44 -32 -8 -430 -242 -430 -252 0 -5 80 -55 178 -110 151 -85 173 -100 148
-103 -16 -2 -32 2 -37 9 -6 11 -12 11 -33 0 -16 -9 -37 -11 -63 -6 -52 9 -193
56 -193 64 0 3 17 15 37 26 20 11 38 26 41 33 6 20 -26 14 -73 -14 l-44 -25
-31 23 c-28 20 -90 102 -90 117 0 3 28 14 61 24 55 16 63 16 78 2 25 -22 34
-19 27 10 -4 16 -2 25 5 25 6 0 41 15 78 33 36 18 74 32 84 29 9 -2 17 2 17
10 0 7 26 33 57 57 48 37 64 44 96 42 25 -1 36 2 32 9 -3 5 -13 10 -21 10 -20
0 -18 8 12 47 25 32 28 34 72 27 26 -3 82 -18 125 -31z m-303 -58 c-7 -9 -33
-29 -57 -46 l-45 -29 -74 40 c-41 23 -74 43 -74 46 0 2 59 4 131 4 117 0 130
-2 119 -15z m-202 -49 l73 -43 -64 -31 c-36 -18 -69 -32 -75 -32 -17 0 -35 74
-28 114 4 20 10 36 14 36 4 0 40 -20 80 -44z m-130 -26 c1 -27 6 -58 11 -69
16 -28 16 -28 -43 -45 -68 -20 -66 -20 -66 4 0 43 66 160 90 160 4 0 8 -22 8
-50z m549 32 l33 -17 -173 -100 c-94 -54 -186 -107 -202 -117 -30 -17 -31 -17
-59 6 l-29 23 194 111 c107 61 196 111 199 111 3 0 20 -8 37 -17z m251 -147
c72 -42 132 -78 132 -80 0 -2 -64 -40 -142 -85 -78 -46 -162 -96 -187 -111
-25 -16 -52 -29 -60 -29 -9 0 -87 43 -174 94 l-159 94 99 57 c54 32 143 84
197 116 l99 59 31 -19 c17 -10 91 -53 164 -96z"/>
<path d="M2205 4780 c-3 -5 1 -10 9 -10 9 0 16 5 16 10 0 6 -4 10 -9 10 -6 0
-13 -4 -16 -10z"/>
<path d="M2165 4750 c3 -5 10 -10 16 -10 5 0 9 5 9 10 0 6 -7 10 -16 10 -8 0
-12 -4 -9 -10z"/>
<path d="M2115 4730 c-3 -5 1 -10 9 -10 9 0 16 5 16 10 0 6 -4 10 -9 10 -6 0
-13 -4 -16 -10z"/>
<path d="M2150 4621 c-85 -49 -156 -94 -158 -99 -4 -14 74 -54 96 -50 30 5
312 173 309 183 -3 9 -75 54 -87 55 -3 0 -75 -40 -160 -89z m188 45 c22 -12
17 -16 -116 -93 -135 -77 -141 -79 -167 -65 l-27 14 138 79 c77 43 141 79 144
79 3 -1 15 -6 28 -14z"/>
<path d="M2429 4616 c-63 -32 -290 -169 -295 -177 -3 -5 3 -9 12 -9 18 0 310
165 319 180 10 16 -11 19 -36 6z"/>
<path d="M2380 4509 c-36 -22 -91 -54 -122 -71 -55 -29 -73 -48 -46 -48 22 0
258 135 258 148 0 20 -22 13 -90 -29z"/>
<path d="M10300 4903 c-27 -11 -504 -295 -522 -311 -10 -8 -18 -27 -18 -42 0
-15 8 -34 18 -42 36 -32 467 -278 486 -278 12 0 16 4 11 8 -10 8 -140 85 -358
212 -112 65 -134 87 -118 118 15 27 510 314 553 320 59 7 99 -5 183 -58 77
-49 110 -61 103 -39 -2 6 -41 34 -88 62 -79 49 -87 52 -159 54 -42 1 -83 0
-91 -4z"/>
<path d="M10630 4729 c-47 -28 -90 -53 -96 -56 -6 -2 -25 7 -42 22 -41 35
-153 75 -208 75 -50 0 -124 -34 -124 -57 0 -7 4 -13 10 -13 5 0 35 -12 65 -26
63 -30 83 -61 104 -157 9 -39 20 -62 34 -72 51 -33 252 -145 260 -145 25 0
-10 27 -122 93 l-125 73 -18 74 c-24 96 -35 112 -108 148 -60 30 -60 31 -38
46 47 33 151 10 242 -54 31 -22 58 -40 60 -40 2 0 45 25 96 55 51 31 106 59
122 62 36 7 78 -14 78 -39 0 -14 8 -18 36 -18 42 0 74 -15 74 -35 0 -8 7 -15
15 -15 8 0 26 -5 40 -12 22 -10 26 -17 21 -40 -4 -19 -1 -28 7 -28 7 0 21 -6
31 -13 23 -17 14 -53 -15 -62 -10 -4 -19 -13 -19 -21 0 -19 6 -18 46 6 46 29
53 58 21 86 -14 12 -27 32 -29 45 -2 16 -15 30 -38 41 -19 10 -47 29 -62 42
-16 14 -40 29 -55 32 -16 4 -41 18 -56 31 -49 40 -106 33 -207 -28z"/>
<path d="M10841 4387 c-87 -49 -120 -77 -92 -77 20 0 210 113 205 122 -8 13
-14 11 -113 -45z"/>
<path d="M10232 4394 c-28 -17 -42 -32 -40 -42 4 -22 234 -154 261 -150 15 2
-15 25 -101 77 -67 41 -122 75 -122 77 0 11 74 45 88 39 9 -3 72 -38 139 -78
l123 -71 -22 -23 -21 -23 24 0 c14 0 34 6 45 14 15 12 17 18 8 33 -17 28 -275
172 -309 172 -16 1 -49 -11 -73 -25z"/>
<path d="M10490 4240 c0 -5 7 -10 15 -10 8 0 15 5 15 10 0 6 -7 10 -15 10 -8
0 -15 -4 -15 -10z"/>
<path d="M11630 3116 c0 -71 3 -86 15 -86 13 0 15 14 13 82 -2 54 -7 83 -15
86 -10 3 -13 -18 -13 -82z"/>
<path d="M9640 3115 c0 -60 3 -75 15 -75 12 0 15 15 15 75 0 60 -3 75 -15 75
-12 0 -15 -15 -15 -75z"/>
<path d="M10596 3119 c-28 -76 -27 -91 4 -71 11 7 29 12 40 12 11 0 29 -5 40
-12 10 -7 22 -10 25 -7 3 3 -7 38 -21 77 -36 96 -53 96 -88 1z m57 -9 c4 -15
0 -20 -15 -20 -14 0 -18 5 -14 16 3 9 6 20 6 25 0 17 17 1 23 -21z"/>
<path d="M9997 3167 c-3 -8 -2 -38 1 -68 6 -50 9 -54 35 -57 29 -4 37 12 12
22 -9 3 -15 18 -15 36 0 20 5 30 15 30 8 0 15 7 15 15 0 8 -7 15 -15 15 -8 0
-15 5 -15 10 0 15 -27 12 -33 -3z"/>
<path d="M10407 3166 c-7 -19 4 -98 16 -113 11 -15 57 -17 57 -3 0 6 -7 10
-15 10 -10 0 -15 11 -15 35 0 24 5 35 15 35 8 0 15 7 15 15 0 8 -7 15 -15 15
-8 0 -15 5 -15 10 0 15 -37 12 -43 -4z"/>
<path d="M9710 3099 c0 -45 3 -59 14 -59 10 0 16 14 18 43 2 34 7 42 23 42 16
0 21 -8 23 -42 2 -29 8 -43 18 -43 18 0 20 95 2 106 -7 4 -32 9 -55 10 l-43 3
0 -60z"/>
<path d="M9878 3149 c-29 -16 -22 -49 12 -60 17 -6 30 -15 30 -20 0 -12 -17
-11 -25 1 -10 17 -37 11 -33 -7 4 -21 46 -33 76 -22 35 13 28 46 -13 63 -19 8
-35 18 -35 21 0 3 16 3 35 -1 39 -7 43 -3 19 20 -18 18 -41 20 -66 5z"/>
<path d="M10106 3141 c-19 -21 -21 -72 -4 -89 7 -7 34 -12 60 -12 l48 0 0 58
0 59 -44 1 c-30 0 -50 -5 -60 -17z m72 -42 c3 -28 -16 -43 -43 -33 -18 7 -20
50 -2 57 25 11 42 1 45 -24z"/>
<path d="M10260 3100 c0 -46 3 -60 14 -60 10 0 16 14 18 43 2 34 7 42 23 42
16 0 21 -8 23 -42 2 -29 8 -43 18 -43 10 0 14 13 14 49 0 28 -5 53 -10 56 -6
3 -30 8 -55 11 l-45 4 0 -60z"/>
<path d="M10740 3069 c0 -82 2 -89 20 -89 15 0 20 7 20 29 0 27 3 30 37 33 32
3 39 7 47 35 7 25 5 38 -7 57 -13 20 -24 24 -66 24 l-51 0 0 -89z m94 39 c13
-22 -14 -54 -38 -45 -16 6 -22 48 -9 61 11 11 35 3 47 -16z"/>
<path d="M10910 3068 c0 -52 4 -88 10 -88 6 0 10 15 10 33 0 32 1 33 35 29 44
-5 65 11 65 53 0 43 -25 63 -77 62 l-43 -2 0 -87z m84 40 c13 -22 -14 -54 -38
-45 -16 6 -22 48 -9 61 11 11 35 3 47 -16z"/>
<path d="M11070 3100 c0 -47 3 -60 15 -60 11 0 15 11 15 40 0 27 5 43 15 46
26 10 16 29 -15 31 l-30 2 0 -59z"/>
<path d="M11182 3144 c-15 -10 -22 -25 -22 -48 0 -41 15 -56 60 -56 45 0 60
15 60 56 0 34 -28 64 -60 64 -9 0 -26 -7 -38 -16z m66 -45 c2 -18 -3 -29 -15
-33 -25 -10 -46 20 -32 46 14 27 43 19 47 -13z"/>
<path d="M11310 3155 c0 -2 9 -29 21 -60 32 -85 67 -71 94 38 6 22 4 27 -12
27 -15 0 -22 -10 -30 -42 l-10 -43 -17 43 c-10 23 -24 42 -32 42 -8 0 -14 -2
-14 -5z"/>
<path d="M11470 3133 c-20 -26 -19 -53 2 -80 6 -7 32 -13 59 -13 l49 0 0 58 0
59 -45 1 c-37 0 -49 -4 -65 -25z m75 -24 c10 -30 -18 -57 -39 -39 -16 13 -21
42 -9 53 14 14 42 6 48 -14z"/>
<path d="M1377 3104 c-4 -4 -7 -43 -7 -86 0 -72 2 -78 20 -78 20 0 21 5 18 82
-3 75 -12 100 -31 82z"/>
<path d="M1443 3098 c2 -7 10 -13 17 -13 7 0 15 6 18 13 2 7 -5 12 -18 12 -13
0 -20 -5 -17 -12z"/>
<path d="M2380 3025 c0 -69 3 -85 15 -85 12 0 15 16 15 85 0 69 -3 85 -15 85
-12 0 -15 -16 -15 -85z"/>
<path d="M2453 3098 c2 -7 10 -13 17 -13 7 0 15 6 18 13 2 7 -5 12 -18 12 -13
0 -20 -5 -17 -12z"/>
<path d="M2930 3095 c0 -8 7 -15 15 -15 8 0 15 7 15 15 0 8 -7 15 -15 15 -8 0
-15 -7 -15 -15z"/>
<path d="M1070 3093 c-25 -9 -50 -46 -50 -74 0 -57 95 -94 133 -51 21 22 23
95 4 111 -17 14 -67 22 -87 14z m70 -68 c0 -55 -45 -75 -74 -33 -21 30 -20 43
5 67 31 29 69 10 69 -34z"/>
<path d="M1906 3028 c-14 -39 -24 -74 -21 -77 3 -3 15 0 25 7 11 7 29 12 40
12 11 0 29 -5 40 -12 32 -20 33 -2 5 71 -36 95 -53 95 -89 -1z m64 -20 c0 -4
-9 -8 -21 -8 -15 0 -19 4 -15 16 3 9 6 21 6 27 1 13 30 -22 30 -35z"/>
<path d="M2833 3071 c-6 -10 -8 -22 -3 -27 5 -5 10 -27 12 -49 2 -33 7 -41 26
-43 12 -2 22 1 22 7 0 6 -4 11 -10 11 -15 0 -12 67 3 74 10 5 10 7 0 12 -7 3
-13 12 -13 20 0 20 -23 17 -37 -5z"/>
<path d="M1238 3063 c-27 -4 -28 -7 -28 -59 0 -40 4 -54 14 -54 10 0 16 14 18
43 2 35 7 43 26 45 20 3 22 -1 22 -42 0 -39 3 -46 20 -46 17 0 20 7 20 44 0
27 -6 51 -16 60 -15 16 -24 17 -76 9z"/>
<path d="M1548 3063 c-27 -4 -28 -7 -28 -59 0 -41 4 -54 15 -54 11 0 15 12 15
45 0 41 2 45 25 45 23 0 25 -4 25 -45 0 -33 4 -45 15 -45 25 0 21 96 -4 110
-11 5 -23 9 -28 9 -4 -1 -20 -4 -35 -6z"/>
<path d="M1686 3048 c-33 -47 -10 -98 43 -98 28 0 60 25 47 37 -3 3 -17 1 -30
-6 -24 -13 -46 -8 -46 10 0 5 20 9 45 9 51 0 59 16 25 50 -27 27 -65 26 -84
-2z m59 -18 c4 -6 -5 -10 -20 -10 -15 0 -24 4 -20 10 3 6 12 10 20 10 8 0 17
-4 20 -10z"/>
<path d="M2088 3063 c-28 -4 -28 -4 -28 -89 0 -68 3 -84 15 -84 11 0 15 11 15
35 0 31 2 35 18 26 12 -7 26 -6 43 2 31 16 38 70 13 98 -17 19 -23 20 -76 12z
m57 -44 c10 -30 -18 -57 -39 -39 -16 13 -21 42 -9 53 14 14 42 6 48 -14z"/>
<path d="M2248 3063 c-28 -4 -28 -4 -28 -89 0 -68 3 -84 15 -84 10 0 15 10 15
33 0 32 1 33 34 29 27 -3 37 0 46 18 15 28 5 86 -16 94 -16 6 -19 6 -66 -1z
m60 -49 c4 -29 -23 -51 -43 -34 -16 13 -20 42 -8 54 14 14 48 1 51 -20z"/>
<path d="M2542 3054 c-35 -24 -28 -84 12 -103 23 -11 33 -11 52 0 24 12 33 39
14 39 -6 0 -19 -6 -30 -12 -17 -11 -22 -10 -30 2 -5 8 -10 20 -10 25 0 6 5 17
10 25 8 12 13 13 30 3 26 -17 40 -16 40 2 0 15 -29 35 -52 35 -8 0 -24 -7 -36
-16z"/>
<path d="M2681 3051 c-25 -25 -27 -49 -6 -79 13 -18 25 -21 65 -21 l50 2 0 53
c0 39 -4 54 -14 54 -7 0 -27 3 -44 6 -22 5 -35 1 -51 -15z m68 -30 c13 -24 -9
-57 -33 -48 -16 6 -22 47 -9 60 12 13 32 7 42 -12z"/>
<path d="M3022 3054 c-25 -17 -31 -71 -10 -92 13 -13 66 -16 85 -4 7 4 15 22
19 39 5 24 1 36 -15 52 -25 25 -49 27 -79 5z m63 -34 c7 -23 -10 -50 -31 -50
-15 0 -29 43 -19 59 11 18 43 12 50 -9z"/>
<path d="M3183 3063 c-21 -4 -23 -10 -23 -59 0 -40 4 -54 14 -54 10 0 16 14
18 43 2 35 7 43 26 45 20 3 22 -1 22 -42 0 -34 4 -46 15 -46 11 0 15 12 15 50
0 63 -18 76 -87 63z"/>
<path d="M1450 3005 c0 -30 5 -55 10 -55 6 0 10 25 10 55 0 30 -4 55 -10 55
-5 0 -10 -25 -10 -55z"/>
<path d="M2460 3005 c0 -30 5 -55 10 -55 6 0 10 25 10 55 0 30 -4 55 -10 55
-5 0 -10 -25 -10 -55z"/>
<path d="M2930 3005 c0 -42 3 -55 15 -55 12 0 15 13 15 55 0 42 -3 55 -15 55
-12 0 -15 -13 -15 -55z"/>
<path d="M6396 2942 c-3 -5 -66 -44 -141 -87 -74 -42 -138 -81 -141 -86 -16
-27 46 0 160 67 l128 77 46 -22 46 -23 -39 -24 c-22 -14 -61 -37 -87 -52 -27
-15 -48 -30 -48 -34 0 -18 35 -5 115 43 l86 50 206 -120 c193 -114 233 -133
233 -112 0 4 -111 73 -247 151 -137 79 -262 152 -280 162 -17 10 -34 15 -37
10z"/>
<path d="M6395 2860 c4 -6 11 -8 16 -5 14 9 11 15 -7 15 -8 0 -12 -5 -9 -10z"/>
<path d="M6330 2830 c0 -5 7 -10 15 -10 8 0 15 5 15 10 0 6 -7 10 -15 10 -8 0
-15 -4 -15 -10z"/>
<path d="M10344 2819 c-8 -14 11 -33 25 -25 16 10 13 36 -3 36 -8 0 -18 -5
-22 -11z"/>
<path d="M9962 2804 c-13 -9 -22 -23 -21 -32 1 -10 -3 -29 -10 -43 -10 -20
-10 -32 -2 -47 10 -19 20 -21 75 -20 58 2 64 4 55 20 -6 12 -6 25 1 38 9 17 8
20 -10 20 -11 0 -20 -5 -20 -12 0 -6 -13 1 -30 17 -33 32 -31 48 6 39 29 -7
33 11 5 26 -25 13 -22 13 -49 -6z m26 -86 c18 -18 14 -38 -7 -38 -20 0 -35 25
-25 41 7 12 18 11 32 -3z"/>
<path d="M10557 2813 c-4 -3 -7 -39 -7 -80 l0 -73 48 0 c57 0 72 12 72 60 0
43 -14 60 -51 60 -18 0 -28 6 -32 20 -5 20 -18 26 -30 13z m81 -94 c2 -17 -3
-29 -13 -33 -25 -9 -35 1 -35 35 0 26 3 30 23 27 15 -2 23 -11 25 -29z"/>
<path d="M11260 2740 c0 -73 2 -80 20 -80 18 0 20 7 20 80 0 73 -2 80 -20 80
-18 0 -20 -7 -20 -80z"/>
<path d="M10170 2735 l0 -75 45 0 c75 0 112 51 84 114 -13 27 -35 36 -91 36
l-38 0 0 -75z m99 23 c10 -28 -5 -65 -30 -73 -30 -10 -39 3 -39 51 0 42 1 44
30 44 23 0 33 -6 39 -22z"/>
<path d="M6275 2790 c4 -6 11 -8 16 -5 14 9 11 15 -7 15 -8 0 -12 -5 -9 -10z"/>
<path d="M10340 2720 c0 -53 2 -60 20 -60 18 0 20 7 20 60 0 53 -2 60 -20 60
-18 0 -20 -7 -20 -60z"/>
<path d="M10421 2762 c-12 -23 4 -52 29 -52 10 0 22 -5 25 -11 11 -17 -2 -21
-24 -8 -23 15 -36 7 -27 -16 4 -12 16 -15 43 -13 33 3 38 7 41 29 3 22 -2 29
-27 37 -17 6 -31 16 -31 21 0 14 6 14 30 -1 22 -14 35 -6 27 17 -9 22 -74 20
-86 -3z"/>
<path d="M10710 2731 c0 -27 6 -53 13 -59 6 -6 33 -10 60 -10 l47 0 0 59 c0
52 -2 59 -20 59 -17 0 -20 -7 -20 -44 0 -25 -5 -48 -10 -51 -20 -12 -40 17
-40 56 0 28 -4 39 -15 39 -11 0 -15 -12 -15 -49z"/>
<path d="M10870 2719 c0 -46 3 -59 15 -59 10 0 15 10 15 34 0 18 7 39 15 46
24 20 17 37 -15 38 l-30 1 0 -60z"/>
<path d="M10983 2773 c-20 -7 -16 -53 5 -59 9 -3 26 -9 37 -14 20 -8 20 -8 1
-16 -13 -5 -21 -3 -24 4 -6 19 -34 14 -30 -5 2 -14 13 -18 43 -18 36 0 40 3
40 25 0 17 -8 29 -27 38 -16 7 -28 17 -28 23 0 12 6 11 30 -3 22 -14 35 -6 27
17 -6 14 -47 19 -74 8z"/>
<path d="M11118 2769 c-20 -11 -24 -59 -8 -89 8 -16 21 -19 60 -19 l50 2 0 57
0 57 -42 1 c-24 1 -51 -4 -60 -9z m67 -49 c0 -30 -35 -40 -55 -15 -10 12 -10
18 0 30 20 25 55 15 55 -15z"/>
<path d="M11340 2759 c-14 -25 -1 -44 37 -54 18 -4 23 -9 16 -16 -7 -7 -17 -7
-31 2 -25 16 -40 5 -22 -16 19 -23 77 -20 85 5 8 25 0 39 -31 50 -13 5 -24 14
-24 20 0 13 17 13 25 0 9 -15 35 -12 35 4 0 31 -74 36 -90 5z"/>
<path d="M6115 2729 c-173 -26 -274 -99 -283 -203 -5 -63 21 -106 92 -154 183
-122 499 -93 629 59 28 32 40 39 70 39 20 0 39 -4 42 -10 4 -6 77 -10 186 -10
141 0 186 3 209 15 61 31 60 83 -1 104 -41 14 -385 15 -394 1 -3 -5 -23 -10
-43 -10 -32 0 -43 6 -76 45 -79 96 -266 149 -431 124z m240 -39 c115 -33 195
-104 195 -175 0 -100 -163 -195 -336 -195 -196 0 -349 85 -349 194 0 75 80
150 193 181 74 21 216 18 297 -5z m415 -170 c0 -39 -1 -40 -35 -40 -30 0 -35
3 -35 24 0 13 -3 31 -6 40 -5 13 2 16 35 16 l41 0 0 -40z m278 24 c12 -8 22
-21 22 -29 0 -30 -42 -38 -192 -36 l-68 1 0 40 0 40 108 0 c81 0 113 -4 130
-16z m-388 -29 c0 -11 -11 -15 -38 -15 -28 0 -39 4 -39 15 0 11 11 15 39 15
27 0 38 -4 38 -15z"/>
<path d="M6104 2632 c-93 -33 -124 -65 -124 -127 0 -35 43 -79 102 -105 75
-33 203 -34 270 -1 96 46 125 121 71 176 -67 67 -216 94 -319 57z m243 -34
c24 -12 51 -35 59 -50 14 -27 14 -28 -11 -18 -15 6 -44 10 -67 10 -23 0 -51 8
-66 19 -56 39 -133 33 -171 -13 -12 -14 -11 -20 9 -41 12 -13 32 -25 44 -27
11 -2 20 -10 18 -17 -1 -7 5 -24 13 -38 22 -32 14 -38 -32 -23 -102 32 -144
76 -129 135 7 29 69 71 124 85 57 14 157 4 209 -22z m-137 -38 c16 0 39 -31
34 -45 -4 -10 -21 -15 -54 -15 -70 0 -93 37 -36 60 11 5 27 7 34 4 8 -2 17 -4
22 -4z m179 -51 c17 -6 31 -13 31 -15 0 -3 -10 -18 -22 -34 l-22 -30 -42 25
c-23 14 -47 25 -53 25 -22 0 -10 -19 26 -41 l38 -24 -55 -12 c-50 -11 -55 -10
-72 9 -27 32 -23 55 12 61 16 4 35 16 42 27 15 23 65 27 117 9z"/>
<path d="M1690 2645 c0 -68 2 -75 20 -75 16 0 20 7 20 30 0 25 4 30 23 30 29
0 47 18 47 45 0 32 -20 45 -67 45 l-43 0 0 -75z m69 46 c17 -11 7 -41 -14 -41
-9 0 -15 9 -15 25 0 27 6 30 29 16z"/>
<path d="M1891 2691 c-7 -5 -22 -6 -32 -4 -17 5 -19 -1 -19 -56 0 -48 3 -61
15 -61 11 0 15 11 15 41 0 32 4 42 20 46 11 3 20 14 20 24 0 22 0 22 -19 10z"/>
<path d="M1967 2684 c-29 -16 -37 -57 -17 -95 14 -25 60 -25 88 1 34 32 27 72
-17 94 -22 12 -30 12 -54 0z m51 -47 c5 -23 -15 -47 -34 -40 -8 3 -14 18 -14
35 0 25 4 29 22 26 13 -2 24 -11 26 -21z"/>
<path d="M2402 2684 c-32 -22 -27 -43 14 -60 25 -10 33 -19 26 -26 -6 -6 -16
-5 -30 3 -25 16 -40 5 -22 -16 16 -19 64 -19 80 0 18 21 5 44 -31 57 -22 7
-27 14 -20 21 8 8 14 8 23 -1 16 -16 28 -15 28 3 0 8 -9 19 -19 25 -25 13 -22
13 -49 -6z"/>
<path d="M2532 2684 c-32 -22 -27 -43 14 -60 25 -10 33 -19 26 -26 -6 -6 -16
-5 -30 3 -25 16 -40 5 -22 -16 16 -19 64 -19 80 0 16 20 6 43 -25 55 -14 5
-25 14 -25 20 0 13 6 13 30 -2 29 -18 39 1 11 23 -28 23 -31 23 -59 3z"/>
<path d="M2100 2671 c-14 -26 -13 -74 2 -89 22 -22 98 -8 98 18 0 13 -37 13
-45 -1 -11 -17 -44 19 -38 42 5 18 11 19 44 14 43 -7 47 -4 23 19 -22 23 -71
20 -84 -3z"/>
<path d="M2246 2674 c-22 -21 -20 -67 2 -87 23 -21 66 -22 82 -2 18 21 3 32
-22 16 -17 -11 -23 -10 -36 3 -15 15 -12 16 31 16 39 0 47 3 47 18 0 44 -72
69 -104 36z m69 -24 c4 -6 -7 -10 -25 -10 -18 0 -29 4 -25 10 3 6 15 10 25 10
10 0 22 -4 25 -10z"/>
<path d="M5718 2548 c-21 -12 -38 -25 -38 -29 0 -11 103 -68 112 -63 15 10 8
21 -27 37 -39 19 -44 33 -16 42 11 3 25 12 31 20 19 23 -18 19 -62 -7z"/>
<path d="M6715 2294 c-121 -69 -238 -136 -261 -149 l-41 -24 -143 80 c-80 44
-148 75 -152 71 -5 -5 -3 -13 4 -19 26 -20 280 -163 291 -163 17 0 547 311
547 321 0 20 -35 3 -245 -117z"/>
<path d="M6962 984 c4 -21 22 -23 26 -1 2 10 -3 17 -13 17 -10 0 -15 -6 -13
-16z"/>
<path d="M7296 991 c-7 -11 18 -33 27 -24 4 3 7 12 7 20 0 15 -26 18 -34 4z"/>
<path d="M6560 911 l0 -78 43 -1 c52 0 77 20 77 63 0 40 -21 59 -60 53 -26 -4
-30 -1 -30 19 0 14 -6 23 -15 23 -12 0 -15 -15 -15 -79z m83 -3 c14 -21 2 -48
-22 -48 -24 0 -37 36 -20 56 14 17 28 14 42 -8z"/>
<path d="M4940 904 l0 -77 52 5 c59 6 78 24 78 75 0 48 -29 73 -85 73 l-45 0
0 -76z m74 46 c20 -7 26 -17 26 -38 0 -34 -16 -52 -47 -52 -21 0 -23 4 -23 50
0 53 3 56 44 40z"/>
<path d="M6109 963 c-3 -37 3 -99 12 -115 6 -10 19 -18 29 -18 23 0 27 18 5
26 -9 4 -15 19 -15 40 0 24 5 34 15 34 8 0 15 5 15 10 0 6 -7 10 -15 10 -8 0
-15 7 -15 15 0 21 -30 19 -31 -2z"/>
<path d="M5123 943 c-22 -15 -26 -62 -8 -89 22 -34 70 -30 98 7 17 24 18 30 6
55 -11 23 -22 30 -49 32 -19 1 -40 -1 -47 -5z m68 -29 c17 -21 0 -49 -32 -49
-27 0 -37 28 -19 50 16 19 34 19 51 -1z"/>
<path d="M5266 934 c-37 -36 -7 -104 46 -104 29 0 66 34 48 45 -7 4 -17 2 -23
-4 -18 -18 -45 -13 -53 11 -9 29 20 52 48 37 23 -12 33 -6 25 16 -8 20 -71 20
-91 -1z"/>
<path d="M5400 906 c0 -57 17 -74 75 -74 l45 0 0 59 c0 45 -3 59 -14 59 -10 0
-16 -14 -18 -42 -2 -36 -7 -44 -25 -46 -21 -3 -23 1 -23 42 0 39 -3 46 -20 46
-17 0 -20 -7 -20 -44z"/>
<path d="M5560 890 c0 -47 3 -60 15 -60 11 0 15 11 15 39 0 46 22 70 45 51 9
-7 15 -29 15 -51 0 -28 4 -39 15 -39 11 0 15 12 15 44 0 25 5 48 10 51 20 12
40 -17 40 -56 0 -28 4 -39 15 -39 19 0 21 93 3 108 -7 5 -52 10 -100 11 l-88
1 0 -60z"/>
<path d="M5812 938 c-7 -7 -12 -29 -12 -50 0 -31 5 -41 24 -49 29 -14 72 -5
80 16 4 13 -1 14 -34 9 -27 -4 -40 -3 -40 5 0 6 17 11 40 11 35 0 40 3 40 23
0 13 -5 28 -12 35 -16 16 -70 16 -86 0z m66 -25 c2 -8 -6 -13 -22 -13 -25 0
-33 10 -19 24 10 10 36 3 41 -11z"/>
<path d="M5950 891 c0 -48 3 -61 15 -61 11 0 15 11 15 38 0 41 15 63 36 55 9
-3 14 -21 14 -49 0 -33 4 -44 15 -44 13 0 15 11 13 58 l-3 57 -52 3 -53 3 0
-60z"/>
<path d="M6277 944 c-17 -18 -6 -46 23 -57 17 -6 30 -15 30 -20 0 -5 -13 -6
-30 -2 -35 8 -41 -9 -9 -25 33 -18 69 -4 69 26 0 19 -7 28 -30 35 -31 11 -41
29 -15 29 8 0 15 -4 15 -10 0 -5 7 -10 16 -10 9 0 14 7 12 18 -2 11 -14 18
-38 20 -20 2 -39 0 -43 -4z"/>
<path d="M6400 906 c0 -56 18 -75 70 -74 l40 0 0 59 c0 46 -3 59 -15 59 -11 0
-15 -12 -15 -46 0 -41 -2 -45 -22 -42 -19 2 -24 10 -26 46 -2 28 -8 42 -18 42
-10 0 -14 -12 -14 -44z"/>
<path d="M6720 889 c0 -46 3 -59 15 -59 11 0 15 11 15 39 0 49 25 75 46 46 8
-10 14 -34 14 -52 0 -18 5 -33 10 -33 6 0 10 17 10 39 0 49 25 75 46 46 8 -10
14 -34 14 -52 0 -18 5 -33 10 -33 11 0 13 89 2 106 -4 8 -39 12 -94 12 l-88 0
0 -59z"/>
<path d="M6960 890 c0 -47 3 -60 15 -60 12 0 15 13 15 60 0 47 -3 60 -15 60
-12 0 -15 -13 -15 -60z"/>
<path d="M7037 943 c-18 -17 -5 -45 28 -59 19 -8 35 -17 35 -20 0 -4 -16 -3
-35 0 -38 8 -48 -7 -16 -24 27 -14 47 -13 65 6 21 20 6 49 -30 58 -20 5 -24
10 -16 18 8 8 15 8 27 -2 18 -15 30 -7 22 15 -6 15 -67 22 -80 8z"/>
<path d="M7172 938 c-21 -21 -13 -39 23 -54 45 -19 45 -28 -1 -19 -44 8 -44
-14 0 -30 59 -21 86 39 29 64 -18 8 -33 18 -33 23 0 11 28 10 35 -2 3 -5 13
-10 21 -10 12 0 12 4 4 20 -12 23 -59 27 -78 8z"/>
<path d="M7300 890 c0 -47 3 -60 15 -60 12 0 15 13 15 60 0 47 -3 60 -15 60
-12 0 -15 -13 -15 -60z"/>
<path d="M7380 934 c-20 -23 -16 -72 6 -89 50 -38 114 3 99 62 -3 15 -12 31
-18 35 -21 13 -74 9 -87 -8z m69 -23 c13 -24 -9 -57 -33 -48 -19 7 -22 53 -3
60 21 9 26 7 36 -12z"/>
<path d="M7520 889 c0 -46 3 -59 15 -59 11 0 15 11 15 39 0 46 22 70 45 51 9
-7 15 -29 15 -51 0 -28 4 -39 15 -39 11 0 15 11 15 41 0 65 -12 79 -70 78
l-50 -2 0 -58z"/>
<path d="M6163 608 c2 -7 10 -13 17 -13 7 0 15 6 18 13 2 7 -5 12 -18 12 -13
0 -20 -5 -17 -12z"/>
<path d="M6241 598 c-13 -35 -1 -138 15 -138 10 0 14 13 14 45 0 25 5 45 10
45 6 0 10 7 10 15 0 8 -5 15 -12 15 -9 0 -9 3 0 12 18 18 15 28 -8 28 -12 0
-24 -9 -29 -22z"/>
<path d="M6327 614 c-9 -10 2 -24 19 -24 8 0 14 7 14 15 0 15 -21 21 -33 9z"/>
<path d="M6803 608 c2 -7 10 -13 17 -13 7 0 15 6 18 13 2 7 -5 12 -18 12 -13
0 -20 -5 -17 -12z"/>
<path d="M5520 590 c-6 -11 -8 -25 -5 -30 4 -6 -1 -17 -9 -26 -38 -37 6 -94
61 -79 16 5 39 7 53 6 21 -3 22 -1 11 13 -7 9 -10 24 -6 37 6 19 4 21 -17 16
-25 -7 -42 5 -63 42 -6 10 -1 12 24 6 32 -7 40 2 19 23 -19 19 -56 14 -68 -8z
m40 -74 c0 -2 3 -11 6 -20 7 -18 -12 -21 -35 -7 -16 10 -6 31 15 31 8 0 14 -2
14 -4z"/>
<path d="M5740 592 c0 -4 10 -35 23 -67 19 -50 27 -60 47 -60 20 0 26 10 46
68 21 63 22 67 4 67 -11 0 -20 -10 -24 -25 -3 -13 -11 -37 -17 -52 l-11 -28
-20 53 c-11 29 -26 52 -34 52 -8 0 -14 -4 -14 -8z"/>
<path d="M6707 587 c-3 -8 -2 -38 1 -68 6 -50 9 -54 35 -57 29 -4 37 12 12 22
-9 3 -15 18 -15 36 0 20 5 30 15 30 8 0 15 7 15 15 0 8 -7 15 -15 15 -8 0 -15
5 -15 10 0 15 -27 12 -33 -3z"/>
<path d="M5927 562 c-43 -48 -1 -124 56 -103 27 10 43 29 33 38 -3 4 -17 1
-30 -6 -24 -13 -46 -8 -46 10 0 5 21 9 46 9 42 0 45 1 39 23 -14 46 -68 62
-98 29z m58 -22 c4 -6 -5 -10 -20 -10 -15 0 -24 4 -20 10 3 6 12 10 20 10 8 0
17 -4 20 -10z"/>
<path d="M6060 520 c0 -53 2 -60 20 -60 17 0 20 7 20 40 0 27 5 43 15 46 27
11 16 29 -20 31 l-35 3 0 -60z"/>
<path d="M6170 520 c0 -47 3 -60 15 -60 12 0 15 13 15 60 0 47 -3 60 -15 60
-12 0 -15 -13 -15 -60z"/>
<path d="M6330 520 c0 -47 3 -60 15 -60 12 0 15 13 15 60 0 47 -3 60 -15 60
-12 0 -15 -13 -15 -60z"/>
<path d="M6412 557 c-29 -31 -28 -61 5 -86 27 -22 56 -21 82 5 21 20 5 30 -23
15 -30 -16 -46 -8 -46 24 0 32 16 40 46 24 31 -16 42 -5 19 21 -24 27 -57 25
-83 -3z"/>
<path d="M6556 561 c-19 -21 -21 -72 -4 -89 7 -7 34 -12 60 -12 l48 0 0 58 0
59 -44 1 c-30 0 -50 -5 -60 -17z m72 -43 c2 -19 -2 -28 -17 -33 -26 -8 -41 1
-41 24 0 44 53 53 58 9z"/>
<path d="M6810 520 c0 -47 3 -60 15 -60 12 0 15 13 15 60 0 47 -3 60 -15 60
-12 0 -15 -13 -15 -60z"/>
<path d="M6889 559 c-16 -16 -20 -28 -15 -52 8 -41 19 -50 56 -50 60 0 86 68
40 105 -29 24 -55 23 -81 -3z m66 -30 c10 -30 -18 -57 -39 -39 -19 15 -20 32
-4 48 18 18 36 14 43 -9z"/>
<path d="M7030 519 c0 -46 3 -59 15 -59 10 0 15 10 15 29 0 42 9 61 30 61 21
0 30 -19 30 -61 0 -16 5 -29 10 -29 15 0 12 96 -2 108 -7 5 -32 10 -55 9 l-43
0 0 -58z"/>
</g>
</svg>
